<svg xmlns="http://www.w3.org/2000/svg" xmlns:xlink="http://www.w3.org/1999/xlink" width="1503" zoomAndPan="magnify" viewBox="0 0 1127.25 179.999997" height="240" preserveAspectRatio="xMidYMid meet" version="1.0"><defs><g/></defs><g fill="#5eead4" fill-opacity="1"><g transform="translate(144.727176, 164.404622)"><g><path d="M 10.765625 -112.234375 L 54.921875 -112.234375 L 54.921875 -143.25 L 10.765625 -143.25 Z M 10.765625 -0.21875 L 54.921875 -0.21875 L 54.921875 -102.96875 L 10.765625 -102.96875 Z M 10.765625 -0.21875 "/></g></g></g><g fill="#5eead4" fill-opacity="1"><g transform="translate(218.608996, 164.404622)"><g><path d="M 203.78125 -143.25 L 163.703125 -143.25 L 107.484375 -80.34375 L 84.65625 -105.984375 C 81.421875 -108.140625 78.1875 -109.421875 75.390625 -109.421875 C 67.640625 -109.421875 64.40625 -100.59375 64.40625 -93.921875 L 64.40625 -73.015625 L 98.65625 -35.546875 L 116.109375 -35.546875 L 159.828125 -83.140625 L 159.828125 -0.21875 L 203.78125 -0.21875 Z M 73.234375 -118.46875 L 51.265625 -143.25 L 10.765625 -143.25 L 10.765625 -0.21875 L 54.921875 -0.21875 L 54.921875 -93.921875 C 54.921875 -105.328125 61.171875 -117.1875 73.234375 -118.46875 Z M 73.234375 -118.46875 "/></g></g></g><g fill="#5eead4" fill-opacity="1"><g transform="translate(441.331379, 164.404622)"><g><path d="M 10.765625 -112.234375 L 54.921875 -112.234375 L 54.921875 -143.25 L 10.765625 -143.25 Z M 10.765625 -0.21875 L 54.921875 -0.21875 L 54.921875 -102.96875 L 10.765625 -102.96875 Z M 10.765625 -0.21875 "/></g></g></g><g fill="#5eead4" fill-opacity="1"><g transform="translate(515.213204, 164.404622)"><g><path d="M 175.125 -66.5625 L 175.34375 -73.015625 C 175.34375 -92.84375 162.421875 -102.96875 143.03125 -102.96875 L 130.75 -102.96875 C 133.34375 -98.875 134.84375 -93.921875 134.84375 -88.3125 C 134.84375 -75.171875 126.015625 -64.40625 115.25 -64.40625 L 54.921875 -64.40625 L 54.921875 -102.96875 L 10.765625 -102.96875 L 10.765625 -0.21875 L 54.921875 -0.21875 L 54.921875 -33.609375 L 92.84375 -33.609375 L 124.296875 -0.4375 L 179 -0.4375 L 145.1875 -35.75 C 158.75 -40.5 169.53125 -51.90625 175.125 -66.5625 Z M 141.3125 -112.234375 C 155.515625 -112.234375 169.953125 -108.140625 178.359375 -95.859375 C 175.34375 -122.5625 155.515625 -143.25 132.46875 -143.25 L 28.859375 -143.25 C 10.34375 -143.25 -5.390625 -127.953125 -7.328125 -112.234375 Z M 141.3125 -112.234375 "/></g></g></g><g fill="#5eead4" fill-opacity="1"><g transform="translate(708.641358, 164.404622)"><g><path d="M 143.25 -103.390625 C 140.875 -108.34375 136.78125 -113.515625 131.609375 -114.59375 C 121.921875 -116.75 113.734375 -109 108.140625 -98.015625 L 104.90625 -91.328125 L 118.90625 -61.828125 L 90.6875 -61.828125 L 75.828125 -30.796875 L 133.765625 -30.796875 L 148.421875 -0.21875 L 192.78125 -0.21875 C 175.34375 -36.40625 143.25 -103.390625 143.25 -103.390625 Z M 134.203125 -122.34375 L 124.078125 -143.25 L 75.171875 -143.25 L 6.671875 -0.21875 L 50.828125 -0.21875 L 99.734375 -102.109375 C 108.78125 -119.765625 119.765625 -127.515625 134.203125 -122.34375 Z M 134.203125 -122.34375 "/></g></g></g><g fill="#5eead4" fill-opacity="1"><g transform="translate(915.855046, 164.404622)"><g><path d="M 10.765625 -112.234375 L 54.921875 -112.234375 L 54.921875 -143.25 L 10.765625 -143.25 Z M 10.765625 -0.21875 L 54.921875 -0.21875 L 54.921875 -102.96875 L 10.765625 -102.96875 Z M 10.765625 -0.21875 "/></g></g></g></svg>